<?xml version="1.0" encoding="UTF-8" standalone="no"?>
<svg width="1930px" height="615px" viewBox="0 0 1930 615" version="1.1" xmlns="http://www.w3.org/2000/svg" xmlns:xlink="http://www.w3.org/1999/xlink" xmlns:sketch="http://www.bohemiancoding.com/sketch/ns">
    <!-- Generator: Sketch 3.3 (11970) - http://www.bohemiancoding.com/sketch -->
    <title>IoT Copy + PaaS</title>
    <desc>Created with Sketch.</desc>
    <defs></defs>
    <g id="Page-1" stroke="none" stroke-width="1" fill="none" fill-rule="evenodd" sketch:type="MSPage">
        <g id="IoT-Copy-+-PaaS" sketch:type="MSLayerGroup" transform="translate(103.000000, 86.000000)">
            <path d="M209.94,158.64125 L209.94,344.28125 L250.76,344.28125 L250.76,158.64125 L209.94,158.64125 Z M337.5,277.20125 C337.5,271.82789 338.019995,266.541276 339.06,261.34125 C340.100005,256.141224 341.876654,251.547937 344.39,247.56125 C346.903346,243.574563 350.239979,240.324596 354.4,237.81125 C358.560021,235.297904 363.759969,234.04125 370,234.04125 C376.240031,234.04125 381.483312,235.297904 385.73,237.81125 C389.976688,240.324596 393.356654,243.574563 395.87,247.56125 C398.383346,251.547937 400.159995,256.141224 401.2,261.34125 C402.240005,266.541276 402.76,271.82789 402.76,277.20125 C402.76,282.57461 402.240005,287.817891 401.2,292.93125 C400.159995,298.044609 398.383346,302.637896 395.87,306.71125 C393.356654,310.784604 389.976688,314.034571 385.73,316.46125 C381.483312,318.887929 376.240031,320.10125 370,320.10125 C363.759969,320.10125 358.560021,318.887929 354.4,316.46125 C350.239979,314.034571 346.903346,310.784604 344.39,306.71125 C341.876654,302.637896 340.100005,298.044609 339.06,292.93125 C338.019995,287.817891 337.5,282.57461 337.5,277.20125 L337.5,277.20125 Z M300.58,277.20125 C300.58,287.94797 302.22665,297.65454 305.52,306.32125 C308.81335,314.98796 313.493303,322.397886 319.56,328.55125 C325.626697,334.704614 332.906624,339.4279 341.4,342.72125 C349.893376,346.0146 359.426614,347.66125 370,347.66125 C380.573386,347.66125 390.149957,346.0146 398.73,342.72125 C407.310043,339.4279 414.633303,334.704614 420.7,328.55125 C426.766697,322.397886 431.44665,314.98796 434.74,306.32125 C438.03335,297.65454 439.68,287.94797 439.68,277.20125 C439.68,266.45453 438.03335,256.704627 434.74,247.95125 C431.44665,239.197873 426.766697,231.744614 420.7,225.59125 C414.633303,219.437886 407.310043,214.671267 398.73,211.29125 C390.149957,207.911233 380.573386,206.22125 370,206.22125 C359.426614,206.22125 349.893376,207.911233 341.4,211.29125 C332.906624,214.671267 325.626697,219.437886 319.56,225.59125 C313.493303,231.744614 308.81335,239.197873 305.52,247.95125 C302.22665,256.704627 300.58,266.45453 300.58,277.20125 L300.58,277.20125 Z M121,421 L681,421 C681,421 801,421 801,320.28125 C801,260.28125 762.318268,220.281269 681,220.28125 C681,220.28125 681,140.28125 621,100.28125 C561,60.28125 461,60.28125 421,100.28125 C421,60.28125 381,0.281249935 261,0.28125 C141,0.281250065 80.9999998,80.28125 80.9999998,140.28125 C80.9999998,200.640625 101,220.28125 101,220.28125 C101,220.28125 0.999999831,219.5625 0.999999796,320.28125 C0.99999976,421 121,421 121,421 Z M505.48,192.96125 L505.48,344.28125 L546.3,344.28125 L546.3,192.96125 L601.94,192.96125 L601.94,158.64125 L449.84,158.64125 L449.84,192.96125 L505.48,192.96125 Z" id="IoT-Copy" fill="#0096D6" sketch:type="MSShapeGroup"></path>
            <text id="PaaS" sketch:type="MSTextLayer" font-family="Helvetica Neue" font-size="260" font-weight="bold" fill="#FFFFFF">
                <tspan x="875" y="345">PaaS</tspan>
            </text>
        </g>
    </g>
</svg>