<?xml version="1.0" encoding="UTF-8" standalone="no"?>
<svg width="800px" height="421px" viewBox="0 0 800 421" version="1.1" xmlns="http://www.w3.org/2000/svg" xmlns:xlink="http://www.w3.org/1999/xlink" xmlns:sketch="http://www.bohemiancoding.com/sketch/ns">
    <!-- Generator: Sketch 3.3 (11970) - http://www.bohemiancoding.com/sketch -->
    <title>IoT Copy@2x</title>
    <desc>Created with Sketch.</desc>
    <defs></defs>
    <g id="Page-1" stroke="none" stroke-width="1" fill="none" fill-rule="evenodd" sketch:type="MSPage">
        <path d="M208.94,158.36 L208.94,344 L249.76,344 L249.76,158.36 L208.94,158.36 Z M336.5,276.92 C336.5,271.54664 337.019995,266.260026 338.06,261.06 C339.100005,255.859974 340.876654,251.266687 343.39,247.28 C345.903346,243.293313 349.239979,240.043346 353.4,237.53 C357.560021,235.016654 362.759969,233.76 369,233.76 C375.240031,233.76 380.483312,235.016654 384.73,237.53 C388.976688,240.043346 392.356654,243.293313 394.87,247.28 C397.383346,251.266687 399.159995,255.859974 400.2,261.06 C401.240005,266.260026 401.76,271.54664 401.76,276.92 C401.76,282.29336 401.240005,287.536641 400.2,292.65 C399.159995,297.763359 397.383346,302.356646 394.87,306.43 C392.356654,310.503354 388.976688,313.753321 384.73,316.18 C380.483312,318.606679 375.240031,319.82 369,319.82 C362.759969,319.82 357.560021,318.606679 353.4,316.18 C349.239979,313.753321 345.903346,310.503354 343.39,306.43 C340.876654,302.356646 339.100005,297.763359 338.06,292.65 C337.019995,287.536641 336.5,282.29336 336.5,276.92 L336.5,276.92 Z M299.58,276.92 C299.58,287.66672 301.22665,297.37329 304.52,306.04 C307.81335,314.70671 312.493303,322.116636 318.56,328.27 C324.626697,334.423364 331.906624,339.14665 340.4,342.44 C348.893376,345.73335 358.426614,347.38 369,347.38 C379.573386,347.38 389.149957,345.73335 397.73,342.44 C406.310043,339.14665 413.633303,334.423364 419.7,328.27 C425.766697,322.116636 430.44665,314.70671 433.74,306.04 C437.03335,297.37329 438.68,287.66672 438.68,276.92 C438.68,266.17328 437.03335,256.423377 433.74,247.67 C430.44665,238.916623 425.766697,231.463364 419.7,225.31 C413.633303,219.156636 406.310043,214.390017 397.73,211.01 C389.149957,207.629983 379.573386,205.94 369,205.94 C358.426614,205.94 348.893376,207.629983 340.4,211.01 C331.906624,214.390017 324.626697,219.156636 318.56,225.31 C312.493303,231.463364 307.81335,238.916623 304.52,247.67 C301.22665,256.423377 299.58,266.17328 299.58,276.92 L299.58,276.92 Z M120,420.71875 L680,420.71875 C680,420.71875 800,420.71875 800,320 C800,260 761.318268,220.000019 680,220 C680,220 680,140 620,100 C560,60 460,60 420,100 C420,60 380,-6.5440382e-08 260,2.84217094e-14 C140,6.54404388e-08 79.9999998,80 79.9999998,140 C79.9999998,200.359375 99.9999998,220 99.9999998,220 C99.9999998,220 -1.68709102e-07,219.28125 -2.04400344e-07,320 C-2.40091563e-07,420.71875 120,420.71875 120,420.71875 Z M504.48,192.68 L504.48,344 L545.3,344 L545.3,192.68 L600.94,192.68 L600.94,158.36 L448.84,158.36 L448.84,192.68 L504.48,192.68 Z" id="IoT-Copy" fill="#0096D6" sketch:type="MSShapeGroup"></path>
    </g>
</svg>